<svg width="40" height="41" viewBox="0 0 40 41" fill="none" xmlns="http://www.w3.org/2000/svg">
<g filter="url(#filter0_d_16_62)">
<rect x="4" y="1.64307" width="31.9119" height="31.3569" rx="4" fill="#072B61"/>
<path fill-rule="evenodd" clip-rule="evenodd" d="M28.0825 16.2132C28.0833 16.2132 28.0839 16.2139 28.0837 16.2146C28.0387 16.3934 27.9299 16.5635 27.7654 16.7123C27.6004 16.8615 27.3836 16.9854 27.1313 17.0747C26.6231 17.2802 26.1785 17.3829 25.7286 17.4856C24.7705 17.6927 23.7621 17.8998 22.6956 18.14C21.5708 18.3803 20.5624 18.6205 19.6626 18.7945C18.5404 19.0347 17.4738 19.2418 16.4602 19.482C15.6976 19.6863 14.9812 19.9526 14.3297 20.274C13.7237 20.6177 13.1949 21.0111 12.7576 21.4437C12.3077 21.9241 12.0245 22.5438 12.0245 23.2661C12.0245 24.7125 12.5856 25.8126 13.7104 26.5002C14.8325 27.2242 16.9127 27.5672 19.996 27.5672C23.1402 27.5672 25.2733 27.1894 26.4008 26.4323C27.5203 25.6751 28.0814 24.6098 28.0814 23.2347V16.2143C28.0814 16.2137 28.0819 16.2132 28.0825 16.2132V16.2132ZM19.9987 0.970703C25.5036 0.970703 29.545 1.62514 32.1254 2.96714C34.7085 4.276 36 5.9593 36 7.95408V24.9528C36 25.6403 35.7777 26.3975 35.386 27.2226C34.989 28.051 34.2056 28.8065 32.9696 29.4924C31.7919 30.1832 30.1643 30.7681 28.0867 31.2154C26.0091 31.6628 23.3149 31.903 20.0013 31.903C16.6931 31.903 13.9935 31.6628 11.9186 31.2154C9.84369 30.7681 8.21338 30.1832 7.03565 29.4924C5.94004 28.8743 5.11006 28.0938 4.62195 27.2226C4.22496 26.3991 4 25.642 4 24.9544V22.2373C4 20.7909 4.61666 19.4489 5.85262 18.2775C7.08858 17.0747 8.82739 16.2496 11.0744 15.7327C12.1965 15.4925 13.488 15.2522 14.9463 14.9424C16.4072 14.6309 17.7517 14.3211 19.1015 14.0478C20.4512 13.7711 21.629 13.4944 22.6373 13.2525C23.2458 13.1001 23.8639 12.963 24.49 12.8416L25.501 12.5318C25.8979 12.3943 26.287 12.1872 26.6813 11.9122C27.073 11.6388 27.4091 11.329 27.6923 10.9843C27.9915 10.6112 28.1457 10.199 28.1423 9.78152V8.67975C28.1464 8.27595 28.011 7.87636 27.7453 7.5084C27.523 7.0942 27.073 6.71645 26.4564 6.3735C25.8397 6.02889 24.9955 5.75386 23.9871 5.5451C22.9761 5.34132 21.6316 5.23694 20.1125 5.23694C16.9683 5.23694 14.8907 5.618 13.7686 6.40664C12.8158 7.09586 12.2547 7.95573 12.1436 8.91833C12.1436 9.12543 11.863 9.26294 11.5243 9.26294L4.67753 9.33253C4.51489 9.33297 4.35856 9.29318 4.24256 9.22181C4.12657 9.15044 4.06032 9.05327 4.05823 8.95147V7.95739C4.05823 6.99148 4.34141 6.09681 4.95807 5.23694C5.57737 4.37541 6.53279 3.6547 7.82169 3.03341C9.11322 2.41543 10.7991 1.90016 12.8185 1.55555C14.7849 1.14135 17.1986 0.970703 20.004 0.970703H19.9987Z" fill="white"/>
</g>
<defs>
<filter id="filter0_d_16_62" x="0" y="0.970703" width="40" height="40.0293" filterUnits="userSpaceOnUse" color-interpolation-filters="sRGB">
<feFlood flood-opacity="0" result="BackgroundImageFix"/>
<feColorMatrix in="SourceAlpha" type="matrix" values="0 0 0 0 0 0 0 0 0 0 0 0 0 0 0 0 0 0 127 0" result="hardAlpha"/>
<feOffset dy="4"/>
<feGaussianBlur stdDeviation="2"/>
<feComposite in2="hardAlpha" operator="out"/>
<feColorMatrix type="matrix" values="0 0 0 0 0 0 0 0 0 0 0 0 0 0 0 0 0 0 0.25 0"/>
<feBlend mode="normal" in2="BackgroundImageFix" result="effect1_dropShadow_16_62"/>
<feBlend mode="normal" in="SourceGraphic" in2="effect1_dropShadow_16_62" result="shape"/>
</filter>
</defs>
</svg>
